<mxfile host="app.diagrams.net" modified="2022-12-14T03:23:12.027Z" agent="5.0 (Windows NT 10.0; WOW64) AppleWebKit/537.36 (KHTML, like Gecko) Chrome/106.0.0.0 YaBrowser/22.11.2.803 Yowser/2.5 Safari/537.36" version="20.6.2" etag="miHJHnxUpUQ4flrj1xMa" type="github">
  <diagram id="35rvoHK9YYEynTDG2oOF" name="Страница 1">
    <mxGraphModel dx="1374" dy="765" grid="1" gridSize="10" guides="1" tooltips="1" connect="1" arrows="1" fold="1" page="1" pageScale="1" pageWidth="827" pageHeight="1169" math="0" shadow="0">
      <root>
        <mxCell id="0" />
        <mxCell id="1" parent="0" />
        <mxCell id="T5mHWWdaawg1E7VZt2Wk-1" style="edgeStyle=orthogonalEdgeStyle;rounded=0;orthogonalLoop=1;jettySize=auto;html=1;entryX=0.5;entryY=0;entryDx=0;entryDy=0;" edge="1" parent="1" source="T5mHWWdaawg1E7VZt2Wk-2" target="T5mHWWdaawg1E7VZt2Wk-5">
          <mxGeometry relative="1" as="geometry" />
        </mxCell>
        <mxCell id="T5mHWWdaawg1E7VZt2Wk-2" value="Start" style="ellipse;whiteSpace=wrap;html=1;" vertex="1" parent="1">
          <mxGeometry x="340" y="70" width="120" height="80" as="geometry" />
        </mxCell>
        <mxCell id="T5mHWWdaawg1E7VZt2Wk-3" value="&lt;span style=&quot;color: rgb(44, 45, 48); font-family: Roboto, &amp;quot;San Francisco&amp;quot;, &amp;quot;Helvetica Neue&amp;quot;, Helvetica, Arial; font-size: 15px; text-align: left; background-color: rgb(255, 255, 255);&quot;&gt;Нахождение индексов максимального и минимального элемента массива&lt;/span&gt;" style="text;html=1;strokeColor=none;fillColor=none;align=center;verticalAlign=middle;whiteSpace=wrap;rounded=0;" vertex="1" parent="1">
          <mxGeometry x="15" y="10" width="770" height="30" as="geometry" />
        </mxCell>
        <mxCell id="T5mHWWdaawg1E7VZt2Wk-4" style="edgeStyle=orthogonalEdgeStyle;rounded=0;orthogonalLoop=1;jettySize=auto;html=1;entryX=0.5;entryY=0;entryDx=0;entryDy=0;" edge="1" parent="1" source="T5mHWWdaawg1E7VZt2Wk-5" target="T5mHWWdaawg1E7VZt2Wk-7">
          <mxGeometry relative="1" as="geometry" />
        </mxCell>
        <mxCell id="T5mHWWdaawg1E7VZt2Wk-5" value="input arr" style="shape=parallelogram;perimeter=parallelogramPerimeter;whiteSpace=wrap;html=1;fixedSize=1;" vertex="1" parent="1">
          <mxGeometry x="340" y="170" width="120" height="60" as="geometry" />
        </mxCell>
        <mxCell id="T5mHWWdaawg1E7VZt2Wk-6" style="edgeStyle=orthogonalEdgeStyle;rounded=0;orthogonalLoop=1;jettySize=auto;html=1;entryX=0.551;entryY=-0.05;entryDx=0;entryDy=0;entryPerimeter=0;" edge="1" parent="1" source="T5mHWWdaawg1E7VZt2Wk-7" target="T5mHWWdaawg1E7VZt2Wk-10">
          <mxGeometry relative="1" as="geometry" />
        </mxCell>
        <mxCell id="T5mHWWdaawg1E7VZt2Wk-7" value="min = arr [0]&lt;br&gt;max = arr [0]&lt;br&gt;indexMin = 0&lt;br&gt;indexMax = 0" style="rounded=0;whiteSpace=wrap;html=1;" vertex="1" parent="1">
          <mxGeometry x="340" y="250" width="120" height="60" as="geometry" />
        </mxCell>
        <mxCell id="T5mHWWdaawg1E7VZt2Wk-8" style="edgeStyle=orthogonalEdgeStyle;rounded=0;orthogonalLoop=1;jettySize=auto;html=1;entryX=0.5;entryY=0;entryDx=0;entryDy=0;" edge="1" parent="1" source="T5mHWWdaawg1E7VZt2Wk-10" target="T5mHWWdaawg1E7VZt2Wk-13">
          <mxGeometry relative="1" as="geometry" />
        </mxCell>
        <mxCell id="T5mHWWdaawg1E7VZt2Wk-9" style="edgeStyle=orthogonalEdgeStyle;rounded=0;orthogonalLoop=1;jettySize=auto;html=1;entryX=0;entryY=0.75;entryDx=0;entryDy=0;" edge="1" parent="1" source="T5mHWWdaawg1E7VZt2Wk-10" target="T5mHWWdaawg1E7VZt2Wk-26">
          <mxGeometry relative="1" as="geometry">
            <Array as="points">
              <mxPoint x="470" y="300" />
            </Array>
          </mxGeometry>
        </mxCell>
        <mxCell id="T5mHWWdaawg1E7VZt2Wk-10" value="i = 0; i &amp;lt; arr.lenght; i++" style="shape=hexagon;perimeter=hexagonPerimeter2;whiteSpace=wrap;html=1;fixedSize=1;" vertex="1" parent="1">
          <mxGeometry x="300" y="330" width="185" height="80" as="geometry" />
        </mxCell>
        <mxCell id="T5mHWWdaawg1E7VZt2Wk-11" style="edgeStyle=orthogonalEdgeStyle;rounded=0;orthogonalLoop=1;jettySize=auto;html=1;entryX=1;entryY=0.5;entryDx=0;entryDy=0;" edge="1" parent="1" source="T5mHWWdaawg1E7VZt2Wk-13" target="T5mHWWdaawg1E7VZt2Wk-15">
          <mxGeometry relative="1" as="geometry">
            <mxPoint x="265" y="629.99" as="targetPoint" />
          </mxGeometry>
        </mxCell>
        <mxCell id="T5mHWWdaawg1E7VZt2Wk-12" style="edgeStyle=orthogonalEdgeStyle;rounded=0;orthogonalLoop=1;jettySize=auto;html=1;entryX=0;entryY=0.5;entryDx=0;entryDy=0;" edge="1" parent="1" source="T5mHWWdaawg1E7VZt2Wk-13" target="T5mHWWdaawg1E7VZt2Wk-22">
          <mxGeometry relative="1" as="geometry" />
        </mxCell>
        <mxCell id="T5mHWWdaawg1E7VZt2Wk-13" value="arr [i]&amp;nbsp; &amp;gt;= max" style="rhombus;whiteSpace=wrap;html=1;" vertex="1" parent="1">
          <mxGeometry x="291.25" y="460" width="202.5" height="80" as="geometry" />
        </mxCell>
        <mxCell id="T5mHWWdaawg1E7VZt2Wk-14" style="edgeStyle=orthogonalEdgeStyle;rounded=0;orthogonalLoop=1;jettySize=auto;html=1;entryX=0;entryY=0.5;entryDx=0;entryDy=0;" edge="1" parent="1" source="T5mHWWdaawg1E7VZt2Wk-15" target="T5mHWWdaawg1E7VZt2Wk-10">
          <mxGeometry relative="1" as="geometry">
            <Array as="points">
              <mxPoint x="200" y="370" />
            </Array>
          </mxGeometry>
        </mxCell>
        <mxCell id="T5mHWWdaawg1E7VZt2Wk-15" value="max = arr [i]&lt;br&gt;indexMax = i" style="rounded=0;whiteSpace=wrap;html=1;" vertex="1" parent="1">
          <mxGeometry x="130" y="470" width="120" height="60" as="geometry" />
        </mxCell>
        <mxCell id="T5mHWWdaawg1E7VZt2Wk-16" style="edgeStyle=orthogonalEdgeStyle;rounded=0;orthogonalLoop=1;jettySize=auto;html=1;entryX=1;entryY=0.5;entryDx=0;entryDy=0;exitX=0.5;exitY=0;exitDx=0;exitDy=0;" edge="1" parent="1" source="T5mHWWdaawg1E7VZt2Wk-17" target="T5mHWWdaawg1E7VZt2Wk-10">
          <mxGeometry relative="1" as="geometry">
            <Array as="points">
              <mxPoint x="720" y="370" />
            </Array>
          </mxGeometry>
        </mxCell>
        <mxCell id="T5mHWWdaawg1E7VZt2Wk-17" value="min = arr [i]&lt;br&gt;indexMin = i" style="rounded=0;whiteSpace=wrap;html=1;" vertex="1" parent="1">
          <mxGeometry x="660" y="470" width="120" height="60" as="geometry" />
        </mxCell>
        <mxCell id="T5mHWWdaawg1E7VZt2Wk-18" value="false" style="text;html=1;align=center;verticalAlign=middle;resizable=0;points=[];autosize=1;strokeColor=none;fillColor=none;" vertex="1" parent="1">
          <mxGeometry x="490" y="460" width="50" height="30" as="geometry" />
        </mxCell>
        <mxCell id="T5mHWWdaawg1E7VZt2Wk-19" value="true" style="text;html=1;align=center;verticalAlign=middle;resizable=0;points=[];autosize=1;strokeColor=none;fillColor=none;" vertex="1" parent="1">
          <mxGeometry x="260" y="475" width="40" height="30" as="geometry" />
        </mxCell>
        <mxCell id="T5mHWWdaawg1E7VZt2Wk-20" style="edgeStyle=orthogonalEdgeStyle;rounded=0;orthogonalLoop=1;jettySize=auto;html=1;entryX=0;entryY=0.5;entryDx=0;entryDy=0;" edge="1" parent="1" source="T5mHWWdaawg1E7VZt2Wk-22" target="T5mHWWdaawg1E7VZt2Wk-17">
          <mxGeometry relative="1" as="geometry" />
        </mxCell>
        <mxCell id="T5mHWWdaawg1E7VZt2Wk-21" style="edgeStyle=orthogonalEdgeStyle;rounded=0;orthogonalLoop=1;jettySize=auto;html=1;entryX=1;entryY=0.5;entryDx=0;entryDy=0;" edge="1" parent="1" source="T5mHWWdaawg1E7VZt2Wk-22" target="T5mHWWdaawg1E7VZt2Wk-10">
          <mxGeometry relative="1" as="geometry">
            <Array as="points">
              <mxPoint x="800" y="540" />
              <mxPoint x="800" y="370" />
            </Array>
          </mxGeometry>
        </mxCell>
        <mxCell id="T5mHWWdaawg1E7VZt2Wk-22" value="arr [i]&amp;nbsp; &amp;lt; min" style="rhombus;whiteSpace=wrap;html=1;" vertex="1" parent="1">
          <mxGeometry x="540" y="460" width="100" height="80" as="geometry" />
        </mxCell>
        <mxCell id="T5mHWWdaawg1E7VZt2Wk-23" value="true" style="text;html=1;align=center;verticalAlign=middle;resizable=0;points=[];autosize=1;strokeColor=none;fillColor=none;" vertex="1" parent="1">
          <mxGeometry x="626" y="473" width="40" height="30" as="geometry" />
        </mxCell>
        <mxCell id="T5mHWWdaawg1E7VZt2Wk-24" value="false" style="text;html=1;align=center;verticalAlign=middle;resizable=0;points=[];autosize=1;strokeColor=none;fillColor=none;" vertex="1" parent="1">
          <mxGeometry x="605" y="515" width="50" height="30" as="geometry" />
        </mxCell>
        <mxCell id="T5mHWWdaawg1E7VZt2Wk-25" style="edgeStyle=orthogonalEdgeStyle;rounded=0;orthogonalLoop=1;jettySize=auto;html=1;entryX=0;entryY=0.5;entryDx=0;entryDy=0;" edge="1" parent="1" source="T5mHWWdaawg1E7VZt2Wk-26" target="T5mHWWdaawg1E7VZt2Wk-27">
          <mxGeometry relative="1" as="geometry" />
        </mxCell>
        <mxCell id="T5mHWWdaawg1E7VZt2Wk-26" value="print indexMin&lt;br&gt;print indexMax" style="shape=document;whiteSpace=wrap;html=1;boundedLbl=1;" vertex="1" parent="1">
          <mxGeometry x="530" y="240" width="120" height="80" as="geometry" />
        </mxCell>
        <mxCell id="T5mHWWdaawg1E7VZt2Wk-27" value="End" style="ellipse;whiteSpace=wrap;html=1;" vertex="1" parent="1">
          <mxGeometry x="680" y="240" width="120" height="80" as="geometry" />
        </mxCell>
      </root>
    </mxGraphModel>
  </diagram>
</mxfile>
